<svg xmlns="http://www.w3.org/2000/svg" width="980" height="360" viewBox="0 0 980 360">
  <rect width="980" height="360" fill="#f5f4ef"/>
  <style>
    .box { fill:#ffffff; stroke:#8c5e34; stroke-width:2; rx:14; ry:14; }
    .text { font: 18px Helvetica, Arial, sans-serif; fill:#1d1d1b; }
    .small { font: 14px Helvetica, Arial, sans-serif; fill:#4b463d; }
    .arrow { stroke:#8c5e34; stroke-width:3; marker-end:url(#m); }
  </style>
  <defs>
    <marker id="m" viewBox="0 0 10 10" refX="9" refY="5" markerWidth="7" markerHeight="7" orient="auto-start-reverse">
      <path d="M 0 0 L 10 5 L 0 10 z" fill="#8c5e34"/>
    </marker>
  </defs>
  <text x="40" y="40" class="text">KAIRA Runtime Governance Stack</text>
  <rect x="40" y="80" width="140" height="72" class="box"/>
  <text x="72" y="120" class="text">User Input</text>
  <rect x="220" y="80" width="170" height="72" class="box"/>
  <text x="246" y="113" class="text">Epistemic</text>
  <text x="258" y="136" class="text">Control Layer</text>
  <rect x="430" y="80" width="170" height="72" class="box"/>
  <text x="480" y="120" class="text">Policy Router</text>
  <rect x="640" y="80" width="140" height="72" class="box"/>
  <text x="668" y="120" class="text">Generator</text>
  <rect x="820" y="80" width="120" height="72" class="box"/>
  <text x="860" y="120" class="text">IDL</text>
  <rect x="290" y="220" width="180" height="78" class="box"/>
  <text x="334" y="255" class="text">Ontology</text>
  <text x="328" y="278" class="text">Validation</text>
  <rect x="520" y="220" width="180" height="78" class="box"/>
  <text x="562" y="255" class="text">Meaning-Gated</text>
  <text x="583" y="278" class="text">Memory</text>
  <rect x="750" y="220" width="180" height="78" class="box"/>
  <text x="804" y="255" class="text">Final</text>
  <text x="788" y="278" class="text">Structured Output</text>
  <line x1="180" y1="116" x2="220" y2="116" class="arrow"/>
  <line x1="390" y1="116" x2="430" y2="116" class="arrow"/>
  <line x1="600" y1="116" x2="640" y2="116" class="arrow"/>
  <line x1="780" y1="116" x2="820" y2="116" class="arrow"/>
  <line x1="880" y1="152" x2="880" y2="220" class="arrow"/>
  <line x1="820" y1="256" x2="700" y2="256" class="arrow"/>
  <line x1="520" y1="256" x2="470" y2="256" class="arrow"/>
  <line x1="380" y1="220" x2="380" y2="152" class="arrow"/>
  <text x="224" y="56" class="small">proceed / clarify / refuse / escalate</text>
  <text x="454" y="56" class="small">allowed / approval / forbidden / unknown</text>
  <text x="286" y="326" class="small">concept hits, relation validity, rejection reasons</text>
</svg>
